<mxGraphModel dx="389" dy="305" grid="1" gridSize="10" guides="1" tooltips="1" connect="1" arrows="1" fold="1" page="1" pageScale="1" pageWidth="827" pageHeight="1169" math="0" shadow="0"><root><mxCell id="WIyWlLk6GJQsqaUBKTNV-0"/><mxCell id="WIyWlLk6GJQsqaUBKTNV-1" parent="WIyWlLk6GJQsqaUBKTNV-0"/><mxCell id="g7qtW4hyHOJkJTq5nPPv-88" value="" style="rounded=0;whiteSpace=wrap;html=1;strokeColor=none;" parent="WIyWlLk6GJQsqaUBKTNV-1" vertex="1"><mxGeometry x="93.36" y="130" width="656.64" height="580" as="geometry"/></mxCell><mxCell id="g7qtW4hyHOJkJTq5nPPv-1" value="" style="ellipse;whiteSpace=wrap;html=1;strokeColor=none;" parent="WIyWlLk6GJQsqaUBKTNV-1" vertex="1"><mxGeometry x="339" y="160" width="150" height="270" as="geometry"/></mxCell><mxCell id="g7qtW4hyHOJkJTq5nPPv-0" value="java.lang.Object的类型数据" style="ellipse;whiteSpace=wrap;html=1;" parent="WIyWlLk6GJQsqaUBKTNV-1" vertex="1"><mxGeometry x="354" y="170" width="120" height="250" as="geometry"/></mxCell><mxCell id="g7qtW4hyHOJkJTq5nPPv-2" value="" style="rounded=0;whiteSpace=wrap;html=1;" parent="WIyWlLk6GJQsqaUBKTNV-1" vertex="1"><mxGeometry x="130" y="160" width="120" height="320" as="geometry"/></mxCell><mxCell id="g7qtW4hyHOJkJTq5nPPv-3" value="clone()" style="text;html=1;align=center;verticalAlign=middle;resizable=0;points=[];autosize=1;strokeColor=none;fillColor=none;" parent="WIyWlLk6GJQsqaUBKTNV-1" vertex="1"><mxGeometry x="158" y="156" width="60" height="30" as="geometry"/></mxCell><mxCell id="g7qtW4hyHOJkJTq5nPPv-4" value="" style="endArrow=none;html=1;rounded=0;exitX=-0.002;exitY=0.061;exitDx=0;exitDy=0;exitPerimeter=0;entryX=1.001;entryY=0.062;entryDx=0;entryDy=0;entryPerimeter=0;" parent="WIyWlLk6GJQsqaUBKTNV-1" edge="1"><mxGeometry width="50" height="50" relative="1" as="geometry"><mxPoint x="129.76" y="179.51999999999998" as="sourcePoint"/><mxPoint x="250.12" y="179.83999999999992" as="targetPoint"/></mxGeometry></mxCell><mxCell id="g7qtW4hyHOJkJTq5nPPv-5" value="equals(Object)" style="text;html=1;align=center;verticalAlign=middle;resizable=0;points=[];autosize=1;strokeColor=none;fillColor=none;" parent="WIyWlLk6GJQsqaUBKTNV-1" vertex="1"><mxGeometry x="138.84" y="180" width="100" height="30" as="geometry"/></mxCell><mxCell id="g7qtW4hyHOJkJTq5nPPv-10" value="finalize()" style="text;html=1;align=center;verticalAlign=middle;resizable=0;points=[];autosize=1;strokeColor=none;fillColor=none;" parent="WIyWlLk6GJQsqaUBKTNV-1" vertex="1"><mxGeometry x="152.88" y="205" width="70" height="30" as="geometry"/></mxCell><mxCell id="g7qtW4hyHOJkJTq5nPPv-11" value="" style="endArrow=none;html=1;rounded=0;exitX=-0.002;exitY=0.061;exitDx=0;exitDy=0;exitPerimeter=0;entryX=1.001;entryY=0.062;entryDx=0;entryDy=0;entryPerimeter=0;" parent="WIyWlLk6GJQsqaUBKTNV-1" edge="1"><mxGeometry width="50" height="50" relative="1" as="geometry"><mxPoint x="129.64000000000004" y="232.79000000000002" as="sourcePoint"/><mxPoint x="250" y="233.18" as="targetPoint"/></mxGeometry></mxCell><mxCell id="g7qtW4hyHOJkJTq5nPPv-12" value="getClass()" style="text;html=1;align=center;verticalAlign=middle;resizable=0;points=[];autosize=1;strokeColor=none;fillColor=none;" parent="WIyWlLk6GJQsqaUBKTNV-1" vertex="1"><mxGeometry x="147.88" y="230" width="80" height="30" as="geometry"/></mxCell><mxCell id="g7qtW4hyHOJkJTq5nPPv-13" value="" style="endArrow=none;html=1;rounded=0;exitX=-0.002;exitY=0.061;exitDx=0;exitDy=0;exitPerimeter=0;entryX=1.001;entryY=0.062;entryDx=0;entryDy=0;entryPerimeter=0;" parent="WIyWlLk6GJQsqaUBKTNV-1" edge="1"><mxGeometry width="50" height="50" relative="1" as="geometry"><mxPoint x="129.64000000000004" y="257.79" as="sourcePoint"/><mxPoint x="250" y="258.18" as="targetPoint"/></mxGeometry></mxCell><mxCell id="g7qtW4hyHOJkJTq5nPPv-14" value="hashCode()" style="text;html=1;align=center;verticalAlign=middle;resizable=0;points=[];autosize=1;strokeColor=none;fillColor=none;" parent="WIyWlLk6GJQsqaUBKTNV-1" vertex="1"><mxGeometry x="143.12" y="254" width="90" height="30" as="geometry"/></mxCell><mxCell id="g7qtW4hyHOJkJTq5nPPv-15" value="" style="endArrow=none;html=1;rounded=0;exitX=-0.002;exitY=0.061;exitDx=0;exitDy=0;exitPerimeter=0;entryX=1.001;entryY=0.062;entryDx=0;entryDy=0;entryPerimeter=0;" parent="WIyWlLk6GJQsqaUBKTNV-1" edge="1"><mxGeometry width="50" height="50" relative="1" as="geometry"><mxPoint x="129.88000000000005" y="281.79" as="sourcePoint"/><mxPoint x="250.24" y="282.18" as="targetPoint"/></mxGeometry></mxCell><mxCell id="g7qtW4hyHOJkJTq5nPPv-16" value="notify()" style="text;html=1;align=center;verticalAlign=middle;resizable=0;points=[];autosize=1;strokeColor=none;fillColor=none;" parent="WIyWlLk6GJQsqaUBKTNV-1" vertex="1"><mxGeometry x="158.96" y="278" width="60" height="30" as="geometry"/></mxCell><mxCell id="g7qtW4hyHOJkJTq5nPPv-17" value="" style="endArrow=none;html=1;rounded=0;exitX=-0.007;exitY=0.061;exitDx=0;exitDy=0;exitPerimeter=0;entryX=1;entryY=0.123;entryDx=0;entryDy=0;entryPerimeter=0;" parent="WIyWlLk6GJQsqaUBKTNV-1" edge="1"><mxGeometry width="50" height="50" relative="1" as="geometry"><mxPoint x="130.12" y="305.79" as="sourcePoint"/><mxPoint x="250.12" y="305.97" as="targetPoint"/></mxGeometry></mxCell><mxCell id="g7qtW4hyHOJkJTq5nPPv-18" value="notifyAll()" style="text;html=1;align=center;verticalAlign=middle;resizable=0;points=[];autosize=1;strokeColor=none;fillColor=none;" parent="WIyWlLk6GJQsqaUBKTNV-1" vertex="1"><mxGeometry x="153" y="303" width="70" height="30" as="geometry"/></mxCell><mxCell id="g7qtW4hyHOJkJTq5nPPv-19" value="" style="endArrow=none;html=1;rounded=0;exitX=-0.002;exitY=0.061;exitDx=0;exitDy=0;exitPerimeter=0;entryX=1.001;entryY=0.062;entryDx=0;entryDy=0;entryPerimeter=0;" parent="WIyWlLk6GJQsqaUBKTNV-1" edge="1"><mxGeometry width="50" height="50" relative="1" as="geometry"><mxPoint x="129.76000000000005" y="330.79" as="sourcePoint"/><mxPoint x="250.12" y="331.18" as="targetPoint"/></mxGeometry></mxCell><mxCell id="g7qtW4hyHOJkJTq5nPPv-20" value="toString()" style="text;html=1;align=center;verticalAlign=middle;resizable=0;points=[];autosize=1;strokeColor=none;fillColor=none;" parent="WIyWlLk6GJQsqaUBKTNV-1" vertex="1"><mxGeometry x="153" y="328" width="70" height="30" as="geometry"/></mxCell><mxCell id="g7qtW4hyHOJkJTq5nPPv-21" value="" style="endArrow=none;html=1;rounded=0;exitX=-0.002;exitY=0.061;exitDx=0;exitDy=0;exitPerimeter=0;entryX=1.001;entryY=0.062;entryDx=0;entryDy=0;entryPerimeter=0;" parent="WIyWlLk6GJQsqaUBKTNV-1" edge="1"><mxGeometry width="50" height="50" relative="1" as="geometry"><mxPoint x="129.76000000000005" y="355.79" as="sourcePoint"/><mxPoint x="250.12" y="356.18" as="targetPoint"/></mxGeometry></mxCell><mxCell id="g7qtW4hyHOJkJTq5nPPv-22" value="wait()" style="text;html=1;align=center;verticalAlign=middle;resizable=0;points=[];autosize=1;strokeColor=none;fillColor=none;" parent="WIyWlLk6GJQsqaUBKTNV-1" vertex="1"><mxGeometry x="163.36" y="350" width="50" height="30" as="geometry"/></mxCell><mxCell id="g7qtW4hyHOJkJTq5nPPv-23" value="" style="endArrow=none;html=1;rounded=0;exitX=-0.002;exitY=0.061;exitDx=0;exitDy=0;exitPerimeter=0;entryX=1.001;entryY=0.062;entryDx=0;entryDy=0;entryPerimeter=0;" parent="WIyWlLk6GJQsqaUBKTNV-1" edge="1"><mxGeometry width="50" height="50" relative="1" as="geometry"><mxPoint x="130.12000000000006" y="377.79" as="sourcePoint"/><mxPoint x="250.48000000000002" y="378.18" as="targetPoint"/></mxGeometry></mxCell><mxCell id="g7qtW4hyHOJkJTq5nPPv-24" value="wait(long)" style="text;html=1;align=center;verticalAlign=middle;resizable=0;points=[];autosize=1;strokeColor=none;fillColor=none;" parent="WIyWlLk6GJQsqaUBKTNV-1" vertex="1"><mxGeometry x="149.2" y="374" width="80" height="30" as="geometry"/></mxCell><mxCell id="g7qtW4hyHOJkJTq5nPPv-25" value="" style="endArrow=none;html=1;rounded=0;exitX=-0.007;exitY=0.061;exitDx=0;exitDy=0;exitPerimeter=0;entryX=1;entryY=0.123;entryDx=0;entryDy=0;entryPerimeter=0;" parent="WIyWlLk6GJQsqaUBKTNV-1" edge="1"><mxGeometry width="50" height="50" relative="1" as="geometry"><mxPoint x="130.36" y="401.79" as="sourcePoint"/><mxPoint x="250.36" y="401.97" as="targetPoint"/></mxGeometry></mxCell><mxCell id="g7qtW4hyHOJkJTq5nPPv-26" value="wait(long,int)" style="text;html=1;align=center;verticalAlign=middle;resizable=0;points=[];autosize=1;strokeColor=none;fillColor=none;" parent="WIyWlLk6GJQsqaUBKTNV-1" vertex="1"><mxGeometry x="143.24" y="399" width="90" height="30" as="geometry"/></mxCell><mxCell id="g7qtW4hyHOJkJTq5nPPv-27" value="" style="endArrow=none;html=1;rounded=0;exitX=-0.002;exitY=0.061;exitDx=0;exitDy=0;exitPerimeter=0;entryX=1.001;entryY=0.062;entryDx=0;entryDy=0;entryPerimeter=0;" parent="WIyWlLk6GJQsqaUBKTNV-1" edge="1"><mxGeometry width="50" height="50" relative="1" as="geometry"><mxPoint x="130.00000000000006" y="426.79" as="sourcePoint"/><mxPoint x="250.36" y="427.18" as="targetPoint"/></mxGeometry></mxCell><mxCell id="g7qtW4hyHOJkJTq5nPPv-28" value="hardChoice(QQ)" style="text;html=1;align=center;verticalAlign=middle;resizable=0;points=[];autosize=1;strokeColor=none;fillColor=none;" parent="WIyWlLk6GJQsqaUBKTNV-1" vertex="1"><mxGeometry x="133.24" y="424" width="110" height="30" as="geometry"/></mxCell><mxCell id="g7qtW4hyHOJkJTq5nPPv-29" value="" style="endArrow=none;html=1;rounded=0;exitX=-0.002;exitY=0.061;exitDx=0;exitDy=0;exitPerimeter=0;entryX=1.001;entryY=0.062;entryDx=0;entryDy=0;entryPerimeter=0;" parent="WIyWlLk6GJQsqaUBKTNV-1" edge="1"><mxGeometry width="50" height="50" relative="1" as="geometry"><mxPoint x="130.00000000000006" y="451.79" as="sourcePoint"/><mxPoint x="250.36" y="452.18" as="targetPoint"/></mxGeometry></mxCell><mxCell id="g7qtW4hyHOJkJTq5nPPv-30" value="hardChoice(_360)" style="text;html=1;align=center;verticalAlign=middle;resizable=0;points=[];autosize=1;strokeColor=none;fillColor=none;" parent="WIyWlLk6GJQsqaUBKTNV-1" vertex="1"><mxGeometry x="129.08" y="448" width="120" height="30" as="geometry"/></mxCell><mxCell id="g7qtW4hyHOJkJTq5nPPv-32" value="" style="rounded=0;whiteSpace=wrap;html=1;" parent="WIyWlLk6GJQsqaUBKTNV-1" vertex="1"><mxGeometry x="580.9200000000001" y="161" width="120" height="320" as="geometry"/></mxCell><mxCell id="g7qtW4hyHOJkJTq5nPPv-33" value="clone()" style="text;html=1;align=center;verticalAlign=middle;resizable=0;points=[];autosize=1;strokeColor=none;fillColor=none;" parent="WIyWlLk6GJQsqaUBKTNV-1" vertex="1"><mxGeometry x="608.9200000000001" y="157" width="60" height="30" as="geometry"/></mxCell><mxCell id="g7qtW4hyHOJkJTq5nPPv-34" value="" style="endArrow=none;html=1;rounded=0;exitX=-0.002;exitY=0.061;exitDx=0;exitDy=0;exitPerimeter=0;entryX=1.001;entryY=0.062;entryDx=0;entryDy=0;entryPerimeter=0;" parent="WIyWlLk6GJQsqaUBKTNV-1" edge="1"><mxGeometry width="50" height="50" relative="1" as="geometry"><mxPoint x="580.6800000000001" y="182.5200000000001" as="sourcePoint"/><mxPoint x="701.04" y="182.84000000000003" as="targetPoint"/></mxGeometry></mxCell><mxCell id="g7qtW4hyHOJkJTq5nPPv-35" value="equals(Object)" style="text;html=1;align=center;verticalAlign=middle;resizable=0;points=[];autosize=1;strokeColor=none;fillColor=none;" parent="WIyWlLk6GJQsqaUBKTNV-1" vertex="1"><mxGeometry x="589.76" y="181" width="100" height="30" as="geometry"/></mxCell><mxCell id="g7qtW4hyHOJkJTq5nPPv-37" value="finalize()" style="text;html=1;align=center;verticalAlign=middle;resizable=0;points=[];autosize=1;strokeColor=none;fillColor=none;" parent="WIyWlLk6GJQsqaUBKTNV-1" vertex="1"><mxGeometry x="603.8" y="206" width="70" height="30" as="geometry"/></mxCell><mxCell id="g7qtW4hyHOJkJTq5nPPv-38" value="" style="endArrow=none;html=1;rounded=0;exitX=-0.002;exitY=0.061;exitDx=0;exitDy=0;exitPerimeter=0;entryX=1.001;entryY=0.062;entryDx=0;entryDy=0;entryPerimeter=0;" parent="WIyWlLk6GJQsqaUBKTNV-1" edge="1"><mxGeometry width="50" height="50" relative="1" as="geometry"><mxPoint x="580.5600000000002" y="233.78999999999996" as="sourcePoint"/><mxPoint x="700.9200000000001" y="234.17999999999995" as="targetPoint"/></mxGeometry></mxCell><mxCell id="g7qtW4hyHOJkJTq5nPPv-39" value="getClass()" style="text;html=1;align=center;verticalAlign=middle;resizable=0;points=[];autosize=1;strokeColor=none;fillColor=none;" parent="WIyWlLk6GJQsqaUBKTNV-1" vertex="1"><mxGeometry x="598.8" y="231" width="80" height="30" as="geometry"/></mxCell><mxCell id="g7qtW4hyHOJkJTq5nPPv-40" value="" style="endArrow=none;html=1;rounded=0;exitX=-0.002;exitY=0.061;exitDx=0;exitDy=0;exitPerimeter=0;entryX=1.001;entryY=0.062;entryDx=0;entryDy=0;entryPerimeter=0;" parent="WIyWlLk6GJQsqaUBKTNV-1" edge="1"><mxGeometry width="50" height="50" relative="1" as="geometry"><mxPoint x="580.5600000000002" y="258.78999999999996" as="sourcePoint"/><mxPoint x="700.9200000000001" y="259.17999999999995" as="targetPoint"/></mxGeometry></mxCell><mxCell id="g7qtW4hyHOJkJTq5nPPv-41" value="hashCode()" style="text;html=1;align=center;verticalAlign=middle;resizable=0;points=[];autosize=1;strokeColor=none;fillColor=none;" parent="WIyWlLk6GJQsqaUBKTNV-1" vertex="1"><mxGeometry x="594.04" y="255" width="90" height="30" as="geometry"/></mxCell><mxCell id="g7qtW4hyHOJkJTq5nPPv-42" value="" style="endArrow=none;html=1;rounded=0;exitX=-0.002;exitY=0.061;exitDx=0;exitDy=0;exitPerimeter=0;entryX=1.001;entryY=0.062;entryDx=0;entryDy=0;entryPerimeter=0;" parent="WIyWlLk6GJQsqaUBKTNV-1" edge="1"><mxGeometry width="50" height="50" relative="1" as="geometry"><mxPoint x="580.8000000000002" y="282.78999999999996" as="sourcePoint"/><mxPoint x="701.1600000000001" y="283.18000000000006" as="targetPoint"/></mxGeometry></mxCell><mxCell id="g7qtW4hyHOJkJTq5nPPv-43" value="notify()" style="text;html=1;align=center;verticalAlign=middle;resizable=0;points=[];autosize=1;strokeColor=none;fillColor=none;" parent="WIyWlLk6GJQsqaUBKTNV-1" vertex="1"><mxGeometry x="609.88" y="279" width="60" height="30" as="geometry"/></mxCell><mxCell id="g7qtW4hyHOJkJTq5nPPv-44" value="" style="endArrow=none;html=1;rounded=0;exitX=-0.007;exitY=0.061;exitDx=0;exitDy=0;exitPerimeter=0;entryX=1;entryY=0.123;entryDx=0;entryDy=0;entryPerimeter=0;" parent="WIyWlLk6GJQsqaUBKTNV-1" edge="1"><mxGeometry width="50" height="50" relative="1" as="geometry"><mxPoint x="581.04" y="306.78999999999996" as="sourcePoint"/><mxPoint x="701.04" y="306.9699999999999" as="targetPoint"/></mxGeometry></mxCell><mxCell id="g7qtW4hyHOJkJTq5nPPv-45" value="notifyAll()" style="text;html=1;align=center;verticalAlign=middle;resizable=0;points=[];autosize=1;strokeColor=none;fillColor=none;" parent="WIyWlLk6GJQsqaUBKTNV-1" vertex="1"><mxGeometry x="603.9200000000001" y="304" width="70" height="30" as="geometry"/></mxCell><mxCell id="g7qtW4hyHOJkJTq5nPPv-46" value="" style="endArrow=none;html=1;rounded=0;exitX=-0.002;exitY=0.061;exitDx=0;exitDy=0;exitPerimeter=0;entryX=1.001;entryY=0.062;entryDx=0;entryDy=0;entryPerimeter=0;" parent="WIyWlLk6GJQsqaUBKTNV-1" edge="1"><mxGeometry width="50" height="50" relative="1" as="geometry"><mxPoint x="580.6800000000001" y="331.78999999999996" as="sourcePoint"/><mxPoint x="701.04" y="332.18000000000006" as="targetPoint"/></mxGeometry></mxCell><mxCell id="g7qtW4hyHOJkJTq5nPPv-47" value="toString()" style="text;html=1;align=center;verticalAlign=middle;resizable=0;points=[];autosize=1;strokeColor=none;fillColor=none;" parent="WIyWlLk6GJQsqaUBKTNV-1" vertex="1"><mxGeometry x="603.9200000000001" y="329" width="70" height="30" as="geometry"/></mxCell><mxCell id="g7qtW4hyHOJkJTq5nPPv-48" value="" style="endArrow=none;html=1;rounded=0;exitX=-0.002;exitY=0.061;exitDx=0;exitDy=0;exitPerimeter=0;entryX=1.001;entryY=0.062;entryDx=0;entryDy=0;entryPerimeter=0;" parent="WIyWlLk6GJQsqaUBKTNV-1" edge="1"><mxGeometry width="50" height="50" relative="1" as="geometry"><mxPoint x="580.6800000000001" y="356.78999999999996" as="sourcePoint"/><mxPoint x="701.04" y="357.18000000000006" as="targetPoint"/></mxGeometry></mxCell><mxCell id="g7qtW4hyHOJkJTq5nPPv-49" value="wait()" style="text;html=1;align=center;verticalAlign=middle;resizable=0;points=[];autosize=1;strokeColor=none;fillColor=none;" parent="WIyWlLk6GJQsqaUBKTNV-1" vertex="1"><mxGeometry x="614.28" y="351" width="50" height="30" as="geometry"/></mxCell><mxCell id="g7qtW4hyHOJkJTq5nPPv-50" value="" style="endArrow=none;html=1;rounded=0;exitX=-0.002;exitY=0.061;exitDx=0;exitDy=0;exitPerimeter=0;entryX=1.001;entryY=0.062;entryDx=0;entryDy=0;entryPerimeter=0;" parent="WIyWlLk6GJQsqaUBKTNV-1" edge="1"><mxGeometry width="50" height="50" relative="1" as="geometry"><mxPoint x="581.0400000000002" y="378.78999999999996" as="sourcePoint"/><mxPoint x="701.4000000000001" y="379.18000000000006" as="targetPoint"/></mxGeometry></mxCell><mxCell id="g7qtW4hyHOJkJTq5nPPv-51" value="wait(long)" style="text;html=1;align=center;verticalAlign=middle;resizable=0;points=[];autosize=1;strokeColor=none;fillColor=none;" parent="WIyWlLk6GJQsqaUBKTNV-1" vertex="1"><mxGeometry x="600.12" y="375" width="80" height="30" as="geometry"/></mxCell><mxCell id="g7qtW4hyHOJkJTq5nPPv-52" value="" style="endArrow=none;html=1;rounded=0;exitX=-0.007;exitY=0.061;exitDx=0;exitDy=0;exitPerimeter=0;entryX=1;entryY=0.123;entryDx=0;entryDy=0;entryPerimeter=0;" parent="WIyWlLk6GJQsqaUBKTNV-1" edge="1"><mxGeometry width="50" height="50" relative="1" as="geometry"><mxPoint x="581.28" y="402.78999999999996" as="sourcePoint"/><mxPoint x="701.2800000000002" y="402.97" as="targetPoint"/></mxGeometry></mxCell><mxCell id="g7qtW4hyHOJkJTq5nPPv-53" value="wait(long,int)" style="text;html=1;align=center;verticalAlign=middle;resizable=0;points=[];autosize=1;strokeColor=none;fillColor=none;" parent="WIyWlLk6GJQsqaUBKTNV-1" vertex="1"><mxGeometry x="594.1600000000001" y="400" width="90" height="30" as="geometry"/></mxCell><mxCell id="g7qtW4hyHOJkJTq5nPPv-54" value="" style="endArrow=none;html=1;rounded=0;exitX=-0.002;exitY=0.061;exitDx=0;exitDy=0;exitPerimeter=0;entryX=1.001;entryY=0.062;entryDx=0;entryDy=0;entryPerimeter=0;" parent="WIyWlLk6GJQsqaUBKTNV-1" edge="1"><mxGeometry width="50" height="50" relative="1" as="geometry"><mxPoint x="580.9200000000001" y="427.78999999999996" as="sourcePoint"/><mxPoint x="701.2800000000002" y="428.18000000000006" as="targetPoint"/></mxGeometry></mxCell><mxCell id="g7qtW4hyHOJkJTq5nPPv-55" value="hardChoice(QQ)" style="text;html=1;align=center;verticalAlign=middle;resizable=0;points=[];autosize=1;strokeColor=none;fillColor=none;" parent="WIyWlLk6GJQsqaUBKTNV-1" vertex="1"><mxGeometry x="584.1600000000001" y="425" width="110" height="30" as="geometry"/></mxCell><mxCell id="g7qtW4hyHOJkJTq5nPPv-56" value="" style="endArrow=none;html=1;rounded=0;exitX=-0.002;exitY=0.061;exitDx=0;exitDy=0;exitPerimeter=0;entryX=1.001;entryY=0.062;entryDx=0;entryDy=0;entryPerimeter=0;" parent="WIyWlLk6GJQsqaUBKTNV-1" edge="1"><mxGeometry width="50" height="50" relative="1" as="geometry"><mxPoint x="580.9200000000001" y="452.78999999999996" as="sourcePoint"/><mxPoint x="701.2800000000002" y="453.18000000000006" as="targetPoint"/></mxGeometry></mxCell><mxCell id="g7qtW4hyHOJkJTq5nPPv-57" value="hardChoice(_360)" style="text;html=1;align=center;verticalAlign=middle;resizable=0;points=[];autosize=1;strokeColor=none;fillColor=none;" parent="WIyWlLk6GJQsqaUBKTNV-1" vertex="1"><mxGeometry x="580" y="449" width="120" height="30" as="geometry"/></mxCell><mxCell id="g7qtW4hyHOJkJTq5nPPv-58" value="" style="endArrow=none;html=1;rounded=0;exitX=-0.002;exitY=0.061;exitDx=0;exitDy=0;exitPerimeter=0;entryX=1.001;entryY=0.062;entryDx=0;entryDy=0;entryPerimeter=0;" parent="WIyWlLk6GJQsqaUBKTNV-1" edge="1"><mxGeometry width="50" height="50" relative="1" as="geometry"><mxPoint x="129.6400000000001" y="206.78999999999996" as="sourcePoint"/><mxPoint x="250" y="207.18000000000006" as="targetPoint"/></mxGeometry></mxCell><mxCell id="g7qtW4hyHOJkJTq5nPPv-59" value="" style="endArrow=none;html=1;rounded=0;exitX=-0.002;exitY=0.061;exitDx=0;exitDy=0;exitPerimeter=0;entryX=1.001;entryY=0.062;entryDx=0;entryDy=0;entryPerimeter=0;" parent="WIyWlLk6GJQsqaUBKTNV-1" edge="1"><mxGeometry width="50" height="50" relative="1" as="geometry"><mxPoint x="580.5600000000002" y="207.99999999999997" as="sourcePoint"/><mxPoint x="700.9200000000001" y="208.39000000000007" as="targetPoint"/></mxGeometry></mxCell><mxCell id="g7qtW4hyHOJkJTq5nPPv-60" value="" style="endArrow=classic;html=1;rounded=0;entryX=0.306;entryY=0.035;entryDx=0;entryDy=0;entryPerimeter=0;" parent="WIyWlLk6GJQsqaUBKTNV-1" target="g7qtW4hyHOJkJTq5nPPv-1" edge="1"><mxGeometry width="50" height="50" relative="1" as="geometry"><mxPoint x="260" y="170" as="sourcePoint"/><mxPoint x="400" y="270" as="targetPoint"/></mxGeometry></mxCell><mxCell id="g7qtW4hyHOJkJTq5nPPv-61" value="" style="endArrow=classic;html=1;rounded=0;entryX=0.147;entryY=0.127;entryDx=0;entryDy=0;entryPerimeter=0;" parent="WIyWlLk6GJQsqaUBKTNV-1" target="g7qtW4hyHOJkJTq5nPPv-1" edge="1"><mxGeometry width="50" height="50" relative="1" as="geometry"><mxPoint x="260" y="195" as="sourcePoint"/><mxPoint x="384.9" y="194.45000000000005" as="targetPoint"/></mxGeometry></mxCell><mxCell id="g7qtW4hyHOJkJTq5nPPv-62" value="" style="endArrow=classic;html=1;rounded=0;" parent="WIyWlLk6GJQsqaUBKTNV-1" edge="1"><mxGeometry width="50" height="50" relative="1" as="geometry"><mxPoint x="260" y="220.55" as="sourcePoint"/><mxPoint x="350" y="220" as="targetPoint"/></mxGeometry></mxCell><mxCell id="g7qtW4hyHOJkJTq5nPPv-63" value="" style="endArrow=classic;html=1;rounded=0;entryX=0.026;entryY=0.316;entryDx=0;entryDy=0;entryPerimeter=0;" parent="WIyWlLk6GJQsqaUBKTNV-1" target="g7qtW4hyHOJkJTq5nPPv-1" edge="1"><mxGeometry width="50" height="50" relative="1" as="geometry"><mxPoint x="260" y="245.55" as="sourcePoint"/><mxPoint x="361.04999999999984" y="244.83999999999997" as="targetPoint"/></mxGeometry></mxCell><mxCell id="g7qtW4hyHOJkJTq5nPPv-64" value="" style="endArrow=classic;html=1;rounded=0;" parent="WIyWlLk6GJQsqaUBKTNV-1" edge="1"><mxGeometry width="50" height="50" relative="1" as="geometry"><mxPoint x="260" y="270.33" as="sourcePoint"/><mxPoint x="340" y="270" as="targetPoint"/></mxGeometry></mxCell><mxCell id="g7qtW4hyHOJkJTq5nPPv-65" value="" style="endArrow=classic;html=1;rounded=0;" parent="WIyWlLk6GJQsqaUBKTNV-1" edge="1"><mxGeometry width="50" height="50" relative="1" as="geometry"><mxPoint x="260" y="295.33" as="sourcePoint"/><mxPoint x="340" y="295" as="targetPoint"/></mxGeometry></mxCell><mxCell id="g7qtW4hyHOJkJTq5nPPv-66" value="" style="endArrow=classic;html=1;rounded=0;" parent="WIyWlLk6GJQsqaUBKTNV-1" edge="1"><mxGeometry width="50" height="50" relative="1" as="geometry"><mxPoint x="260" y="320.87999999999994" as="sourcePoint"/><mxPoint x="340" y="320" as="targetPoint"/></mxGeometry></mxCell><mxCell id="g7qtW4hyHOJkJTq5nPPv-67" value="" style="endArrow=classic;html=1;rounded=0;entryX=0.026;entryY=0.316;entryDx=0;entryDy=0;entryPerimeter=0;" parent="WIyWlLk6GJQsqaUBKTNV-1" edge="1"><mxGeometry width="50" height="50" relative="1" as="geometry"><mxPoint x="260" y="345.87999999999994" as="sourcePoint"/><mxPoint x="342.9" y="345.65000000000003" as="targetPoint"/></mxGeometry></mxCell><mxCell id="g7qtW4hyHOJkJTq5nPPv-68" value="" style="endArrow=classic;html=1;rounded=0;" parent="WIyWlLk6GJQsqaUBKTNV-1" edge="1"><mxGeometry width="50" height="50" relative="1" as="geometry"><mxPoint x="260" y="369.1" as="sourcePoint"/><mxPoint x="350" y="369" as="targetPoint"/></mxGeometry></mxCell><mxCell id="g7qtW4hyHOJkJTq5nPPv-69" value="" style="endArrow=classic;html=1;rounded=0;entryX=0.147;entryY=0.127;entryDx=0;entryDy=0;entryPerimeter=0;" parent="WIyWlLk6GJQsqaUBKTNV-1" edge="1"><mxGeometry width="50" height="50" relative="1" as="geometry"><mxPoint x="260" y="394.1" as="sourcePoint"/><mxPoint x="361.05000000000007" y="393.39" as="targetPoint"/></mxGeometry></mxCell><mxCell id="g7qtW4hyHOJkJTq5nPPv-70" value="" style="endArrow=classic;html=1;rounded=0;entryX=0.316;entryY=0.964;entryDx=0;entryDy=0;entryPerimeter=0;" parent="WIyWlLk6GJQsqaUBKTNV-1" target="g7qtW4hyHOJkJTq5nPPv-1" edge="1"><mxGeometry width="50" height="50" relative="1" as="geometry"><mxPoint x="260" y="419.65" as="sourcePoint"/><mxPoint x="350" y="419.1" as="targetPoint"/></mxGeometry></mxCell><mxCell id="g7qtW4hyHOJkJTq5nPPv-71" value="" style="endArrow=classic;html=1;rounded=0;entryX=0.5;entryY=0;entryDx=0;entryDy=0;exitX=1.011;exitY=0.881;exitDx=0;exitDy=0;exitPerimeter=0;" parent="WIyWlLk6GJQsqaUBKTNV-1" source="g7qtW4hyHOJkJTq5nPPv-2" target="g7qtW4hyHOJkJTq5nPPv-73" edge="1"><mxGeometry width="50" height="50" relative="1" as="geometry"><mxPoint x="260" y="444.65" as="sourcePoint"/><mxPoint x="342.9" y="444.4200000000001" as="targetPoint"/></mxGeometry></mxCell><mxCell id="g7qtW4hyHOJkJTq5nPPv-72" value="" style="endArrow=classic;html=1;rounded=0;" parent="WIyWlLk6GJQsqaUBKTNV-1" target="g7qtW4hyHOJkJTq5nPPv-73" edge="1"><mxGeometry width="50" height="50" relative="1" as="geometry"><mxPoint x="227.88" y="480.3299999999999" as="sourcePoint"/><mxPoint x="307.88" y="480" as="targetPoint"/></mxGeometry></mxCell><mxCell id="g7qtW4hyHOJkJTq5nPPv-73" value="Father的类型数据" style="ellipse;whiteSpace=wrap;html=1;" parent="WIyWlLk6GJQsqaUBKTNV-1" vertex="1"><mxGeometry x="229.2" y="530" width="120" height="140" as="geometry"/></mxCell><mxCell id="g7qtW4hyHOJkJTq5nPPv-74" value="" style="endArrow=classic;html=1;rounded=0;entryX=0.306;entryY=0.035;entryDx=0;entryDy=0;entryPerimeter=0;" parent="WIyWlLk6GJQsqaUBKTNV-1" edge="1"><mxGeometry width="50" height="50" relative="1" as="geometry"><mxPoint x="565.3" y="170" as="sourcePoint"/><mxPoint x="440.4" y="170.55" as="targetPoint"/></mxGeometry></mxCell><mxCell id="g7qtW4hyHOJkJTq5nPPv-75" value="" style="endArrow=classic;html=1;rounded=0;entryX=0.147;entryY=0.127;entryDx=0;entryDy=0;entryPerimeter=0;" parent="WIyWlLk6GJQsqaUBKTNV-1" edge="1"><mxGeometry width="50" height="50" relative="1" as="geometry"><mxPoint x="564.1600000000001" y="194.65000000000003" as="sourcePoint"/><mxPoint x="463.10999999999996" y="195.36" as="targetPoint"/></mxGeometry></mxCell><mxCell id="g7qtW4hyHOJkJTq5nPPv-76" value="" style="endArrow=classic;html=1;rounded=0;" parent="WIyWlLk6GJQsqaUBKTNV-1" edge="1"><mxGeometry width="50" height="50" relative="1" as="geometry"><mxPoint x="564.16" y="219.73000000000002" as="sourcePoint"/><mxPoint x="474.15999999999997" y="220.27999999999997" as="targetPoint"/></mxGeometry></mxCell><mxCell id="g7qtW4hyHOJkJTq5nPPv-77" value="" style="endArrow=classic;html=1;rounded=0;entryX=0.026;entryY=0.316;entryDx=0;entryDy=0;entryPerimeter=0;" parent="WIyWlLk6GJQsqaUBKTNV-1" edge="1"><mxGeometry width="50" height="50" relative="1" as="geometry"><mxPoint x="564.16" y="244.82000000000005" as="sourcePoint"/><mxPoint x="481.26" y="245.04999999999995" as="targetPoint"/></mxGeometry></mxCell><mxCell id="g7qtW4hyHOJkJTq5nPPv-78" value="" style="endArrow=classic;html=1;rounded=0;" parent="WIyWlLk6GJQsqaUBKTNV-1" edge="1"><mxGeometry width="50" height="50" relative="1" as="geometry"><mxPoint x="563.16" y="268.82" as="sourcePoint"/><mxPoint x="483.15999999999997" y="269.1499999999999" as="targetPoint"/></mxGeometry></mxCell><mxCell id="g7qtW4hyHOJkJTq5nPPv-79" value="" style="endArrow=classic;html=1;rounded=0;" parent="WIyWlLk6GJQsqaUBKTNV-1" edge="1"><mxGeometry width="50" height="50" relative="1" as="geometry"><mxPoint x="563" y="294.74" as="sourcePoint"/><mxPoint x="483" y="295.06999999999994" as="targetPoint"/></mxGeometry></mxCell><mxCell id="g7qtW4hyHOJkJTq5nPPv-80" value="" style="endArrow=classic;html=1;rounded=0;" parent="WIyWlLk6GJQsqaUBKTNV-1" edge="1"><mxGeometry width="50" height="50" relative="1" as="geometry"><mxPoint x="563" y="319.56" as="sourcePoint"/><mxPoint x="483" y="320.4399999999999" as="targetPoint"/></mxGeometry></mxCell><mxCell id="g7qtW4hyHOJkJTq5nPPv-81" value="" style="endArrow=classic;html=1;rounded=0;entryX=0.026;entryY=0.316;entryDx=0;entryDy=0;entryPerimeter=0;" parent="WIyWlLk6GJQsqaUBKTNV-1" edge="1"><mxGeometry width="50" height="50" relative="1" as="geometry"><mxPoint x="562.9" y="344.8400000000001" as="sourcePoint"/><mxPoint x="480" y="345.0699999999999" as="targetPoint"/></mxGeometry></mxCell><mxCell id="g7qtW4hyHOJkJTq5nPPv-82" value="" style="endArrow=classic;html=1;rounded=0;" parent="WIyWlLk6GJQsqaUBKTNV-1" edge="1"><mxGeometry width="50" height="50" relative="1" as="geometry"><mxPoint x="564" y="366.84000000000003" as="sourcePoint"/><mxPoint x="474" y="366.94000000000005" as="targetPoint"/></mxGeometry></mxCell><mxCell id="g7qtW4hyHOJkJTq5nPPv-83" value="" style="endArrow=classic;html=1;rounded=0;entryX=0.147;entryY=0.127;entryDx=0;entryDy=0;entryPerimeter=0;" parent="WIyWlLk6GJQsqaUBKTNV-1" edge="1"><mxGeometry width="50" height="50" relative="1" as="geometry"><mxPoint x="564.0500000000001" y="390.64" as="sourcePoint"/><mxPoint x="463" y="391.35" as="targetPoint"/></mxGeometry></mxCell><mxCell id="g7qtW4hyHOJkJTq5nPPv-84" value="" style="endArrow=classic;html=1;rounded=0;entryX=0.316;entryY=0.964;entryDx=0;entryDy=0;entryPerimeter=0;" parent="WIyWlLk6GJQsqaUBKTNV-1" edge="1"><mxGeometry width="50" height="50" relative="1" as="geometry"><mxPoint x="563.4000000000001" y="420.6300000000001" as="sourcePoint"/><mxPoint x="437" y="420" as="targetPoint"/></mxGeometry></mxCell><mxCell id="g7qtW4hyHOJkJTq5nPPv-85" value="Son的类型数据" style="ellipse;whiteSpace=wrap;html=1;" parent="WIyWlLk6GJQsqaUBKTNV-1" vertex="1"><mxGeometry x="450" y="530" width="120" height="140" as="geometry"/></mxCell><mxCell id="g7qtW4hyHOJkJTq5nPPv-86" value="" style="endArrow=classic;html=1;rounded=0;exitX=1.011;exitY=0.881;exitDx=0;exitDy=0;exitPerimeter=0;" parent="WIyWlLk6GJQsqaUBKTNV-1" target="g7qtW4hyHOJkJTq5nPPv-85" edge="1"><mxGeometry width="50" height="50" relative="1" as="geometry"><mxPoint x="580.92" y="441.9200000000001" as="sourcePoint"/><mxPoint x="618.8000000000001" y="530" as="targetPoint"/></mxGeometry></mxCell><mxCell id="g7qtW4hyHOJkJTq5nPPv-87" value="" style="endArrow=classic;html=1;rounded=0;entryX=0.893;entryY=0.162;entryDx=0;entryDy=0;entryPerimeter=0;exitX=0.154;exitY=0.999;exitDx=0;exitDy=0;exitPerimeter=0;" parent="WIyWlLk6GJQsqaUBKTNV-1" source="g7qtW4hyHOJkJTq5nPPv-32" target="g7qtW4hyHOJkJTq5nPPv-85" edge="1"><mxGeometry width="50" height="50" relative="1" as="geometry"><mxPoint x="603.9200000000001" y="479.99999999999994" as="sourcePoint"/><mxPoint x="634.4730097264267" y="539.5737292787211" as="targetPoint"/></mxGeometry></mxCell><mxCell id="0" value="Father方法表" style="text;html=1;align=center;verticalAlign=middle;resizable=0;points=[];autosize=1;strokeColor=none;" vertex="1" parent="WIyWlLk6GJQsqaUBKTNV-1"><mxGeometry x="145" y="140" width="90" height="20" as="geometry"/></mxCell><mxCell id="1" value="Son方法表" style="text;html=1;align=center;verticalAlign=middle;resizable=0;points=[];autosize=1;strokeColor=none;" vertex="1" parent="WIyWlLk6GJQsqaUBKTNV-1"><mxGeometry x="604.04" y="140" width="70" height="20" as="geometry"/></mxCell></root></mxGraphModel>